<?xml version="1.0" encoding="utf-8"?>
<!-- Generator: Adobe Illustrator 27.0.0, SVG Export Plug-In . SVG Version: 6.00 Build 0)  -->
<svg version="1.1" id="Layer_1" xmlns="http://www.w3.org/2000/svg" xmlns:xlink="http://www.w3.org/1999/xlink" x="0px" y="0px"
	 viewBox="0 0 40 33" style="enable-background:new 0 0 40 33;" xml:space="preserve">
<style type="text/css">
	.st0{fill:#FB931B;}
	.st1{fill:#084578;}
	.st2{fill:#FFFFFF;}
</style>
<g>
	<path class="st0" d="M12.37,10.08C5.54,10.08,0,14.45,0,19.84c0,3.44,2.25,6.45,5.65,8.19l-1.1,4.69c-0.05,0.2,0.17,0.35,0.34,0.24
		l5.38-3.5c0.68,0.09,1.39,0.14,2.11,0.14c6.83,0,12.37-4.37,12.37-9.76S19.2,10.08,12.37,10.08z"/>
	<path class="st1" d="M22.19,0C32.03,0,40,6.29,40,14.06c0,4.94-3.24,9.29-8.13,11.8l1.59,6.75c0.07,0.29-0.25,0.51-0.5,0.35
		l-7.74-5.04c-0.99,0.13-2,0.21-3.03,0.21c-9.83,0-17.81-6.29-17.81-14.06S12.36,0,22.19,0z"/>
	<g>
		<path class="st2" d="M22.29,7.21c0.59,0,1.11,0.08,1.57,0.23c0.46,0.15,0.85,0.36,1.18,0.63c0.32,0.27,0.57,0.59,0.74,0.97
			c0.17,0.38,0.26,0.8,0.26,1.26v0.17c0,0.28-0.03,0.54-0.1,0.79c-0.07,0.24-0.18,0.48-0.33,0.73s-0.35,0.49-0.59,0.75
			c-0.24,0.26-0.53,0.54-0.87,0.85c-0.29,0.27-0.53,0.5-0.71,0.7c-0.18,0.2-0.32,0.38-0.41,0.54c-0.09,0.16-0.15,0.32-0.18,0.48
			c-0.03,0.16-0.04,0.33-0.04,0.52c0,0.21-0.08,0.38-0.24,0.49c-0.16,0.11-0.34,0.17-0.54,0.17c-0.21,0-0.4-0.05-0.57-0.16
			c-0.16-0.11-0.25-0.28-0.25-0.53c0-0.28,0.02-0.54,0.05-0.78c0.03-0.24,0.1-0.47,0.21-0.68c0.11-0.22,0.26-0.45,0.47-0.68
			c0.2-0.24,0.47-0.5,0.8-0.79c0.33-0.28,0.6-0.53,0.8-0.74c0.21-0.21,0.37-0.41,0.49-0.59s0.2-0.35,0.25-0.51
			c0.04-0.16,0.07-0.33,0.07-0.52v-0.12c0-0.47-0.17-0.87-0.52-1.18c-0.34-0.32-0.87-0.47-1.58-0.47c-0.51,0-0.95,0.08-1.32,0.25
			c-0.37,0.16-0.72,0.37-1.03,0.63c-0.17,0.12-0.34,0.17-0.52,0.14c-0.18-0.03-0.34-0.14-0.47-0.3c-0.12-0.16-0.18-0.34-0.18-0.53
			c0.01-0.2,0.09-0.36,0.26-0.5c0.38-0.33,0.85-0.61,1.41-0.84C20.95,7.33,21.58,7.21,22.29,7.21z M22.02,17.88
			c0.33,0,0.6,0.1,0.8,0.31c0.21,0.21,0.31,0.47,0.31,0.79s-0.1,0.58-0.31,0.79c-0.21,0.21-0.48,0.32-0.8,0.32
			c-0.32,0-0.58-0.11-0.79-0.32c-0.21-0.21-0.31-0.48-0.31-0.79s0.1-0.58,0.31-0.79S21.7,17.88,22.02,17.88z"/>
	</g>
</g>
</svg>
