<svg xmlns="http://www.w3.org/2000/svg" width="76.422" height="82" viewBox="0 0 76.422 82">
  <g id="icon_callcenter" transform="translate(1 1)">
    <path id="패스_13" data-name="패스 13" d="M75.422,37.924H63.115a6.154,6.154,0,0,0-6.154,6.154V59.462a6.154,6.154,0,0,0,6.154,6.154h6.153a6.154,6.154,0,0,0,6.154-6.154V37.924A36.922,36.922,0,0,0,38.5,1l-.309,0A36.923,36.923,0,0,0,1,37.654c0,.09,0,.18,0,.27V59.462a6.154,6.154,0,0,0,6.154,6.154h6.154a6.153,6.153,0,0,0,6.153-6.154V44.078a6.153,6.153,0,0,0-6.153-6.154H1" transform="translate(-1 -1)" fill="none" stroke="#fff" stroke-linecap="round" stroke-linejoin="round" stroke-width="2"/>
    <path id="패스_14" data-name="패스 14" d="M75.422,59.462v9.231A12.307,12.307,0,0,1,63.115,81H41" transform="translate(-1 -1)" fill="none" stroke="#fff" stroke-linecap="round" stroke-linejoin="round" stroke-width="2"/>
  </g>
</svg>
