<?xml version="1.0" encoding="utf-8"?>
<!-- Generator: Adobe Illustrator 27.0.0, SVG Export Plug-In . SVG Version: 6.00 Build 0)  -->
<svg version="1.1" id="Layer_1" xmlns="http://www.w3.org/2000/svg" xmlns:xlink="http://www.w3.org/1999/xlink" x="0px" y="0px"
	 viewBox="0 0 212 40" style="enable-background:new 0 0 212 40;" xml:space="preserve">
<style type="text/css">
	.st0{fill:#34519C;}
	.st1{fill:none;}
	.st2{fill:url(#SVGID_1_);}
	.st3{fill:url(#SVGID_00000170256809610898866820000013525595092284628406_);}
	.st4{fill:url(#SVGID_00000054953696932647100630000004333511387509305258_);}
</style>
<g>
	<g>
		<g>
			<path class="st0" d="M46.18,10.79h3.68c0.37,0,0.67,0.3,0.67,0.67v6.61c0,0.37,0.3,0.67,0.67,0.67h5.53
				c0.37,0,0.67-0.3,0.67-0.67v-6.61c0-0.37,0.3-0.67,0.67-0.67h3.62c0.37,0,0.67,0.3,0.67,0.67v19.57c0,0.37-0.3,0.67-0.67,0.67
				h-3.62c-0.37,0-0.67-0.3-0.67-0.67v-7.25c0-0.37-0.3-0.67-0.67-0.67H51.2c-0.37,0-0.67,0.3-0.67,0.67v7.25
				c0,0.37-0.3,0.67-0.67,0.67h-3.68c-0.37,0-0.67-0.3-0.67-0.67V11.46C45.51,11.09,45.81,10.79,46.18,10.79z"/>
		</g>
		<g>
			<path class="st0" d="M78.31,31.34l-3.47-6.64c-0.12-0.22-0.35-0.36-0.6-0.36h-1.33c-0.37,0-0.67,0.3-0.67,0.67v6.02
				c0,0.37-0.3,0.67-0.67,0.67h-3.67c-0.37,0-0.67-0.3-0.67-0.67V11.46c0-0.37,0.3-0.67,0.67-0.67h6.98c4.46,0,8.16,1.52,8.16,6.58
				c0,2.78-1.18,4.66-3.01,5.74c-0.31,0.18-0.42,0.59-0.24,0.91l3.75,6.68c0.25,0.45-0.07,1.01-0.59,1.01H78.9
				C78.65,31.71,78.42,31.57,78.31,31.34z M72.24,19.7c0,0.37,0.3,0.67,0.67,0.67h1.57c2.38,0,3.65-1.04,3.65-3.01
				c0-1.97-1.26-2.61-3.65-2.61h-1.57c-0.37,0-0.67,0.3-0.67,0.67V19.7z"/>
		</g>
		<g>
			<path class="st0" d="M87.08,11.46c0-0.37,0.3-0.67,0.67-0.67h5.33c6.37,0,10.58,3.06,10.58,10.35s-4.21,10.57-10.29,10.57h-5.61
				c-0.37,0-0.67-0.3-0.67-0.67V11.46z M92.77,27.66c3.37,0,5.75-1.55,5.75-6.52s-2.38-6.35-5.75-6.35l0,0
				c-0.37,0-0.67,0.3-0.67,0.67v11.53C92.1,27.36,92.4,27.66,92.77,27.66L92.77,27.66z"/>
		</g>
		<g>
			<g>
				<path class="st1" d="M29,20c0-5.01-4.05-9.07-9.05-9.07c-0.83,0-1.62,0.11-2.38,0.32l0,0l0,0c-3.84,1.05-6.66,4.57-6.66,8.75
					c0,5.01,4.05,9.07,9.05,9.07c0.83,0,1.62-0.11,2.38-0.32l0,0l0,0C26.18,27.7,29,24.18,29,20z"/>
				
					<linearGradient id="SVGID_1_" gradientUnits="userSpaceOnUse" x1="-3626.49" y1="301.2522" x2="-3605.0181" y2="280.6133" gradientTransform="matrix(0 1 -1 0 315.1748 3638.6899)">
					<stop  offset="0" style="stop-color:#08458F"/>
					<stop  offset="1" style="stop-color:#57BCDF"/>
				</linearGradient>
				<path class="st2" d="M39.91,20c0-8.85-5.74-16.36-13.7-18.99c9.19,6.62,7.47,26.12-3.87,27.74c-0.76,0.21-1.56,0.32-2.38,0.32
					c-5,0-9.05-4.06-9.05-9.07c0-4.18,2.82-7.7,6.66-8.75C6.22,12.87,4.51,32.37,13.7,38.99c1.97,0.65,4.07,1.01,6.26,1.01
					C30.98,40,39.91,31.05,39.91,20z"/>
				
					<linearGradient id="SVGID_00000042726810513603366410000013444334613635289534_" gradientUnits="userSpaceOnUse" x1="-3630.2129" y1="311.8036" x2="-3612.9246" y2="288.136" gradientTransform="matrix(0 1 -1 0 315.1748 3638.6899)">
					<stop  offset="0" style="stop-color:#57BCDF"/>
					<stop  offset="1" style="stop-color:#08458F"/>
				</linearGradient>
				<path style="fill:url(#SVGID_00000042726810513603366410000013444334613635289534_);" d="M17.57,11.25
					c0.76-0.21,1.56-0.32,2.38-0.32c5,0,9.05,4.06,9.05,9.07c0,4.18-2.82,7.7-6.66,8.75C33.69,27.13,35.4,7.63,26.21,1.01
					C24.24,0.36,22.14,0,19.96,0C8.93,0,0,8.95,0,20c0,8.85,5.74,16.36,13.7,18.99C4.51,32.37,6.22,12.87,17.57,11.25z"/>
			</g>
		</g>
		
			<linearGradient id="SVGID_00000120553150563472185430000017002186514239307443_" gradientUnits="userSpaceOnUse" x1="16.701" y1="20.0001" x2="23.2098" y2="20.0001">
			<stop  offset="0" style="stop-color:#57BCDF"/>
			<stop  offset="1" style="stop-color:#08458F"/>
		</linearGradient>
		<path style="fill:url(#SVGID_00000120553150563472185430000017002186514239307443_);" d="M17.76,22.41
			c1.33,1.22,3.39,1.12,4.6-0.21c1.21-1.33,1.12-3.39-0.21-4.61c-1.33-1.22-3.39-1.12-4.6,0.21C16.34,19.13,16.43,21.19,17.76,22.41
			z"/>
	</g>
	<g>
		<g>
			<path class="st0" d="M113.33,27.25c-1.6,0-2.79-0.52-3.55-1.55c-0.76-1.03-1.15-2.51-1.15-4.44v-2.46c0-1.93,0.38-3.41,1.15-4.44
				c0.76-1.03,1.95-1.55,3.55-1.55c1.6,0,2.79,0.52,3.54,1.55c0.76,1.03,1.14,2.5,1.16,4.42h1.68v-7.12h2.72v19.71h-2.72V21.26
				h-1.68c0,1.93-0.38,3.41-1.15,4.44C116.12,26.73,114.94,27.25,113.33,27.25z M113.33,15.32c-0.79,0-1.33,0.32-1.62,0.97
				c-0.3,0.65-0.44,1.59-0.44,2.83v1.82c0,1.24,0.15,2.19,0.44,2.83c0.29,0.65,0.84,0.97,1.62,0.97c0.79,0,1.33-0.32,1.62-0.97
				c0.3-0.65,0.44-1.59,0.44-2.83v-1.82c0-1.24-0.15-2.19-0.44-2.83C114.66,15.65,114.12,15.32,113.33,15.32z M126.71,32.39h-2.73
				V11.23h2.73V32.39z"/>
			<path class="st0" d="M126.91,32.6h-3.13V11.02h3.13V32.6z M124.18,32.19h2.32V11.43h-2.32V32.19z M122.64,31.57h-3.13V21.47
				h-1.28c-0.03,1.87-0.43,3.33-1.18,4.36c-0.8,1.08-2.05,1.63-3.72,1.63c-1.67,0-2.92-0.55-3.72-1.63
				c-0.79-1.06-1.19-2.6-1.19-4.56v-2.46c0-1.96,0.4-3.5,1.19-4.56c0.8-1.08,2.05-1.63,3.72-1.63c1.66,0,2.91,0.55,3.71,1.63
				c0.75,1.03,1.15,2.48,1.19,4.33h1.28v-7.12h3.13V31.57z M119.91,31.17h2.32V11.86h-2.32v7.12h-2.08l0-0.2
				c-0.01-1.86-0.39-3.31-1.12-4.3c-0.71-0.97-1.85-1.47-3.38-1.47c-1.53,0-2.67,0.49-3.39,1.47c-0.73,0.99-1.11,2.44-1.11,4.32
				v2.46c0,1.87,0.37,3.33,1.11,4.32c0.72,0.97,1.86,1.47,3.39,1.47c1.53,0,2.67-0.49,3.39-1.47c0.73-0.99,1.11-2.44,1.11-4.32v-0.2
				h2.08V31.17z M113.33,24.95c-0.87,0-1.48-0.37-1.81-1.08c-0.31-0.67-0.46-1.65-0.46-2.92v-1.82c0-1.27,0.16-2.25,0.46-2.92
				c0.33-0.72,0.94-1.09,1.81-1.09c0.87,0,1.48,0.37,1.81,1.08c0.31,0.67,0.46,1.65,0.46,2.92v1.82c0,1.27-0.16,2.25-0.46,2.92
				C114.81,24.58,114.2,24.95,113.33,24.95z M113.33,15.53c-0.71,0-1.18,0.28-1.44,0.85c-0.28,0.62-0.42,1.54-0.42,2.75v1.82
				c0,1.21,0.14,2.13,0.42,2.75c0.26,0.57,0.73,0.85,1.44,0.85s1.18-0.28,1.44-0.85c0.28-0.61,0.42-1.54,0.42-2.75v-1.82
				c0-1.21-0.14-2.13-0.42-2.75C114.51,15.8,114.04,15.53,113.33,15.53z"/>
		</g>
		<g>
			<path class="st0" d="M138.38,22.99c-0.35-0.3-0.73-0.64-1.16-1.02c-0.42-0.38-0.79-0.71-1.09-0.98
				c-0.35-0.32-0.62-0.59-0.81-0.81c-0.19-0.22-0.32-0.41-0.4-0.58h-0.02c-0.08,0.2-0.2,0.41-0.37,0.63
				c-0.17,0.22-0.42,0.5-0.74,0.83c-0.3,0.3-0.7,0.69-1.18,1.17c-0.48,0.48-1.01,0.98-1.59,1.49l-1.84-1.89
				c0.48-0.42,0.97-0.86,1.44-1.32c0.48-0.46,0.94-0.93,1.4-1.41c0.27-0.29,0.5-0.57,0.68-0.84c0.18-0.27,0.33-0.55,0.43-0.84
				c0.11-0.29,0.18-0.59,0.22-0.9c0.04-0.31,0.06-0.66,0.06-1.04V12.3h2.82v3.05c0,0.38,0.01,0.72,0.05,1.02
				c0.03,0.3,0.09,0.59,0.19,0.86c0.1,0.27,0.23,0.54,0.41,0.81c0.17,0.27,0.4,0.53,0.67,0.81c0.79,0.8,1.63,1.58,2.52,2.32
				L138.38,22.99z M140.24,28.77c-0.08,0.21-0.32,0.46-0.73,0.73c-0.41,0.27-0.91,0.57-1.5,0.89c-0.36,0.2-0.75,0.4-1.15,0.6
				c-0.4,0.2-0.81,0.41-1.22,0.6c-0.41,0.2-0.8,0.38-1.18,0.56c-0.38,0.17-0.73,0.33-1.04,0.47l-1.2-2.32
				c0.39-0.17,0.81-0.35,1.25-0.53c0.44-0.19,0.87-0.39,1.31-0.59c0.43-0.2,0.85-0.41,1.26-0.61c0.41-0.21,0.77-0.4,1.09-0.58
				c0.53-0.29,0.93-0.63,1.19-1.04c0.26-0.4,0.4-0.91,0.4-1.54v-1.55h2.91v1.55c0,0.61,0.12,1.11,0.36,1.5
				c0.24,0.39,0.65,0.75,1.23,1.07c0.32,0.18,0.68,0.37,1.08,0.57c0.4,0.2,0.82,0.4,1.25,0.6c0.43,0.21,0.87,0.41,1.31,0.61
				c0.44,0.2,0.85,0.39,1.25,0.56l-1.16,2.23c-0.32-0.14-0.67-0.3-1.04-0.48c-0.38-0.18-0.77-0.37-1.18-0.56
				c-0.41-0.19-0.81-0.39-1.22-0.59c-0.4-0.2-0.78-0.41-1.15-0.6c-0.59-0.32-1.07-0.6-1.43-0.85c-0.36-0.25-0.58-0.48-0.66-0.69
				H140.24z M143.51,22.77h-2.7v-4.89h-2.5v-2.48h2.5V11.5h2.7V22.77z M144.9,11.23h2.73v13.61h-2.73V11.23z"/>
			<path class="st0" d="M133.34,32.88l-1.39-2.68l0.2-0.09c0.39-0.17,0.81-0.35,1.25-0.53c0.44-0.19,0.87-0.38,1.3-0.59
				c0.43-0.2,0.85-0.41,1.26-0.61c0.41-0.2,0.77-0.39,1.08-0.58c0.5-0.27,0.88-0.6,1.12-0.97c0.24-0.37,0.36-0.85,0.36-1.43v-1.75
				h3.31v1.75c0,0.57,0.11,1.04,0.33,1.4c0.22,0.36,0.61,0.7,1.15,1c0.32,0.18,0.68,0.37,1.07,0.56c0.4,0.2,0.82,0.4,1.25,0.6
				c0.43,0.2,0.87,0.41,1.3,0.61c0.44,0.2,0.85,0.39,1.24,0.55l0.2,0.09l-1.35,2.59l-0.17-0.07c-0.32-0.14-0.67-0.3-1.05-0.48
				c-0.38-0.18-0.77-0.37-1.18-0.56c-0.41-0.19-0.82-0.39-1.22-0.6c-0.4-0.21-0.79-0.41-1.15-0.61c-0.59-0.32-1.08-0.61-1.45-0.86
				c-0.25-0.17-0.43-0.33-0.56-0.49c-0.14,0.17-0.35,0.34-0.62,0.53c-0.41,0.27-0.92,0.58-1.52,0.9c-0.36,0.2-0.75,0.4-1.15,0.61
				c-0.4,0.21-0.81,0.41-1.22,0.61c-0.41,0.2-0.8,0.38-1.18,0.56c-0.38,0.18-0.73,0.33-1.05,0.47L133.34,32.88z M132.5,30.4
				l1.02,1.96c0.27-0.12,0.56-0.25,0.87-0.39c0.38-0.17,0.77-0.36,1.18-0.56c0.41-0.2,0.81-0.4,1.21-0.6c0.4-0.2,0.78-0.4,1.14-0.6
				c0.58-0.31,1.08-0.61,1.48-0.88c0.46-0.31,0.61-0.51,0.65-0.63l0.05-0.13h0.31l0.05,0.13c0.04,0.12,0.18,0.32,0.58,0.6
				c0.36,0.25,0.83,0.53,1.41,0.84c0.36,0.2,0.74,0.4,1.14,0.6c0.4,0.2,0.8,0.4,1.21,0.59c0.41,0.19,0.8,0.38,1.18,0.56
				c0.31,0.15,0.6,0.28,0.86,0.4l0.97-1.87c-0.34-0.14-0.69-0.3-1.05-0.47c-0.44-0.21-0.88-0.41-1.31-0.62
				c-0.43-0.21-0.85-0.41-1.25-0.6c-0.4-0.2-0.76-0.39-1.09-0.57c-0.6-0.33-1.04-0.72-1.3-1.14c-0.26-0.42-0.39-0.97-0.39-1.61
				v-1.35h-2.5v1.35c0,0.66-0.15,1.21-0.43,1.65c-0.28,0.43-0.71,0.8-1.26,1.1c-0.32,0.18-0.69,0.38-1.1,0.58
				c-0.41,0.21-0.83,0.41-1.26,0.62c-0.43,0.21-0.87,0.4-1.31,0.59C133.19,30.11,132.84,30.26,132.5,30.4z M147.82,25.04h-3.13
				V11.02h3.13V25.04z M145.1,24.63h2.32V11.43h-2.32V24.63z M131.01,24l-2.12-2.18l0.16-0.14c0.48-0.42,0.96-0.86,1.44-1.31
				c0.48-0.46,0.95-0.93,1.39-1.4c0.26-0.28,0.49-0.55,0.66-0.82c0.17-0.26,0.31-0.53,0.41-0.8c0.1-0.27,0.17-0.56,0.2-0.85
				c0.04-0.3,0.05-0.64,0.05-1.01v-3.39h3.22v3.25c0,0.37,0.01,0.71,0.04,1c0.03,0.29,0.09,0.56,0.18,0.82
				c0.09,0.26,0.22,0.52,0.39,0.77c0.17,0.25,0.38,0.51,0.64,0.78c0.78,0.8,1.62,1.57,2.51,2.31l0.16,0.14l-1.96,2.12l-0.15-0.13
				c-0.35-0.3-0.74-0.65-1.16-1.03c-0.42-0.38-0.79-0.71-1.09-0.98c-0.36-0.33-0.63-0.6-0.82-0.83c-0.09-0.11-0.17-0.21-0.24-0.31
				c-0.07,0.11-0.15,0.23-0.24,0.35c-0.18,0.22-0.43,0.51-0.75,0.84c-0.31,0.31-0.7,0.7-1.19,1.18c-0.49,0.48-1.02,0.98-1.6,1.5
				L131.01,24z M129.47,21.84l1.56,1.6c0.51-0.46,1-0.92,1.44-1.35c0.48-0.48,0.88-0.87,1.18-1.17c0.31-0.32,0.55-0.6,0.72-0.81
				c0.16-0.2,0.28-0.4,0.34-0.57l0.05-0.13h0.27l0.08,0.12c0.07,0.15,0.19,0.33,0.37,0.53c0.18,0.21,0.45,0.48,0.79,0.79
				c0.3,0.27,0.66,0.6,1.09,0.98c0.36,0.33,0.7,0.62,1.01,0.89l1.4-1.52c-0.84-0.7-1.63-1.44-2.37-2.2
				c-0.28-0.28-0.51-0.56-0.69-0.84c-0.18-0.28-0.33-0.56-0.43-0.85c-0.1-0.29-0.17-0.59-0.2-0.91c-0.03-0.31-0.05-0.66-0.05-1.04
				V12.5h-2.41v2.98c0,0.38-0.02,0.74-0.06,1.06c-0.04,0.32-0.12,0.64-0.23,0.94c-0.11,0.3-0.26,0.6-0.45,0.89
				c-0.19,0.28-0.42,0.58-0.7,0.87c-0.44,0.48-0.92,0.95-1.4,1.42C130.34,21.06,129.91,21.46,129.47,21.84z M143.71,22.97h-3.11
				v-4.89h-2.5v-2.89h2.5V11.3h3.11V22.97z M141.01,22.56h2.3V11.7h-2.3v3.89h-2.5v2.08h2.5V22.56z"/>
		</g>
		<g>
			<path class="st0" d="M155.12,27.32v-7.03h2.79v7.03h2.02v-7.03h2.79v7.03h7.61v2.41h-19.35v-2.41H155.12z M164.36,24.72
				c0.14-0.71,0.24-1.4,0.32-2.06c0.08-0.66,0.13-1.31,0.17-1.95c0.04-0.64,0.06-1.28,0.08-1.92c0.01-0.64,0.02-1.3,0.02-1.97v-1.34
				H153.3V13h14.47v3.07c0,1.7-0.04,3.28-0.13,4.73c-0.08,1.46-0.25,2.88-0.49,4.28L164.36,24.72z"/>
			<path class="st0" d="M170.53,29.93h-19.75v-2.82h4.13v-7.03h3.2v7.03h1.62v-7.03h3.2v7.03h7.61V29.93z M151.18,29.53h18.94v-2.01
				h-7.61v-7.03h-2.39v7.03h-2.42v-7.03h-2.39v7.03h-4.13V29.53z M167.32,25.31l-3.2-0.42l0.04-0.21c0.13-0.7,0.24-1.38,0.32-2.05
				c0.08-0.65,0.13-1.3,0.17-1.93c0.04-0.64,0.06-1.28,0.08-1.92c0.01-0.64,0.02-1.3,0.02-1.96v-1.14H153.1V12.8h14.87v3.27
				c0,1.69-0.04,3.29-0.13,4.75c-0.08,1.45-0.25,2.9-0.49,4.3L167.32,25.31z M164.6,24.55l2.39,0.31c0.22-1.33,0.37-2.69,0.45-4.06
				c0.08-1.45,0.12-3.04,0.12-4.72V13.2H153.5v2.08h11.65v1.55c0,0.67-0.01,1.33-0.02,1.97c-0.01,0.64-0.04,1.29-0.08,1.93
				c-0.04,0.64-0.1,1.3-0.17,1.96C164.81,23.29,164.71,23.92,164.6,24.55z"/>
		</g>
		<g>
			<path class="st0" d="M177.35,25.61v-2.25h-5.02v-2.37h19.35v2.37h-5.02v2.25h2.41v7.03h-2.86v-4.67h-11.35v-2.37H177.35z
				 M182,19.99c-1.01,0-1.95-0.09-2.79-0.26c-0.85-0.17-1.58-0.43-2.19-0.77c-0.61-0.34-1.09-0.76-1.43-1.26
				c-0.34-0.5-0.51-1.08-0.51-1.73v-0.5c0-0.65,0.17-1.23,0.51-1.73c0.34-0.5,0.82-0.92,1.43-1.26c0.61-0.34,1.34-0.6,2.19-0.77
				c0.85-0.17,1.78-0.26,2.79-0.26c1.01,0,1.95,0.09,2.79,0.26c0.85,0.17,1.58,0.43,2.19,0.77c0.61,0.34,1.09,0.76,1.43,1.26
				c0.34,0.5,0.51,1.08,0.51,1.73v0.5c0,0.65-0.17,1.23-0.51,1.73c-0.34,0.5-0.82,0.92-1.43,1.26c-0.61,0.34-1.34,0.6-2.19,0.77
				C183.95,19.9,183.02,19.99,182,19.99z M182,13.75c-1.29,0-2.29,0.16-3.01,0.48c-0.72,0.32-1.08,0.74-1.08,1.27v0.41
				c0,0.53,0.36,0.96,1.08,1.27c0.72,0.32,1.72,0.48,3.01,0.48c1.29,0,2.29-0.16,3.01-0.48c0.72-0.32,1.08-0.74,1.08-1.27V15.5
				c0-0.53-0.36-0.96-1.08-1.27C184.29,13.91,183.29,13.75,182,13.75z M180.16,25.61h3.68v-2.25h-3.68V25.61z"/>
			<path class="st0" d="M189.27,32.85H186v-4.67h-11.35v-2.77h2.5v-1.85h-5.02v-2.77h19.75v2.77h-5.02v1.85h2.41V32.85z
				 M186.41,32.44h2.46v-6.63h-2.41v-2.66h5.02v-1.96h-18.94v1.96h5.02v2.66h-2.5v1.96h11.35V32.44z M184.05,25.81h-4.08v-2.66h4.08
				V25.81z M180.37,25.41h3.28v-1.85h-3.28V25.41z M182,20.19c-1.02,0-1.98-0.09-2.83-0.27c-0.86-0.18-1.62-0.45-2.25-0.8
				c-0.64-0.36-1.14-0.8-1.5-1.33c-0.36-0.53-0.55-1.15-0.55-1.84v-0.5c0-0.69,0.18-1.31,0.55-1.84c0.36-0.52,0.86-0.97,1.5-1.33
				c0.63-0.35,1.39-0.62,2.25-0.8c0.86-0.18,1.81-0.27,2.83-0.27c1.02,0,1.98,0.09,2.83,0.27c0.86,0.18,1.62,0.45,2.25,0.8
				c0.64,0.36,1.14,0.8,1.5,1.33c0.36,0.53,0.55,1.15,0.55,1.84v0.5c0,0.69-0.18,1.31-0.55,1.84c-0.36,0.53-0.86,0.97-1.5,1.33
				c-0.63,0.35-1.38,0.62-2.25,0.8C183.98,20.1,183.03,20.19,182,20.19z M182,11.63c-1,0-1.92,0.09-2.75,0.26
				c-0.82,0.17-1.54,0.42-2.13,0.75c-0.58,0.32-1.04,0.73-1.36,1.2c-0.32,0.46-0.48,1.01-0.48,1.62v0.5c0,0.61,0.16,1.15,0.48,1.62
				c0.32,0.47,0.78,0.88,1.36,1.2c0.59,0.33,1.31,0.58,2.13,0.75c0.83,0.17,1.76,0.26,2.75,0.26c1,0,1.92-0.09,2.75-0.26
				c0.82-0.17,1.54-0.42,2.13-0.75c0.58-0.32,1.04-0.73,1.36-1.2c0.32-0.46,0.48-1.01,0.48-1.62v-0.5c0-0.61-0.16-1.15-0.48-1.62
				c-0.32-0.47-0.78-0.88-1.36-1.2c-0.59-0.33-1.31-0.58-2.13-0.75C183.93,11.72,183,11.63,182,11.63z M182,17.87
				c-1.31,0-2.35-0.17-3.09-0.5c-0.8-0.35-1.2-0.84-1.2-1.46V15.5c0-0.62,0.4-1.11,1.2-1.46c0.74-0.33,1.78-0.5,3.09-0.5
				c1.31,0,2.35,0.17,3.09,0.5c0.8,0.35,1.2,0.84,1.2,1.46v0.41c0,0.62-0.4,1.11-1.2,1.46C184.35,17.7,183.31,17.87,182,17.87z
				 M182,13.95c-1.25,0-2.24,0.15-2.93,0.46c-0.65,0.29-0.96,0.64-0.96,1.09v0.41c0,0.45,0.31,0.8,0.96,1.09
				c0.69,0.31,1.67,0.46,2.93,0.46c1.25,0,2.24-0.15,2.93-0.46c0.64-0.29,0.96-0.64,0.96-1.09V15.5c0-0.45-0.31-0.8-0.96-1.09
				C184.24,14.11,183.26,13.95,182,13.95z"/>
		</g>
		<g>
			<path class="st0" d="M193.97,20.58c1.74,0,3.27-0.01,4.6-0.02c1.32-0.01,2.51-0.04,3.57-0.07c1.05-0.03,1.99-0.07,2.83-0.11
				c0.83-0.05,1.62-0.11,2.36-0.18l0.2,2.39c-0.73,0.09-1.56,0.16-2.49,0.22c-0.93,0.05-2.03,0.09-3.28,0.13v2.78h-2.84v-2.73
				c-0.74,0.02-1.52,0.02-2.34,0.02s-1.69,0-2.61,0V20.58z M200.65,19.69c-0.76,0-1.46-0.09-2.1-0.27c-0.64-0.18-1.2-0.44-1.68-0.76
				c-0.48-0.33-0.85-0.72-1.12-1.18c-0.27-0.46-0.41-0.97-0.41-1.51v-0.64c0-0.55,0.14-1.05,0.41-1.51
				c0.27-0.46,0.65-0.86,1.12-1.18c0.48-0.33,1.04-0.58,1.68-0.76c0.64-0.18,1.34-0.27,2.1-0.27c0.74,0,1.44,0.09,2.09,0.27
				c0.65,0.18,1.21,0.44,1.69,0.76c0.48,0.33,0.85,0.72,1.12,1.18c0.27,0.46,0.41,0.97,0.41,1.51v0.64c0,0.55-0.14,1.05-0.41,1.51
				c-0.27,0.46-0.65,0.86-1.12,1.18c-0.48,0.33-1.04,0.58-1.69,0.76C202.09,19.6,201.39,19.69,200.65,19.69z M200.28,29.78h11.51
				v2.46h-14.4v-5.71h2.88V29.78z M200.65,13.93c-0.77,0-1.4,0.15-1.88,0.44c-0.48,0.3-0.73,0.66-0.73,1.1v0.32
				c0,0.44,0.24,0.81,0.73,1.1c0.48,0.3,1.11,0.44,1.88,0.44s1.4-0.15,1.88-0.44c0.48-0.3,0.73-0.66,0.73-1.1v-0.32
				c0-0.44-0.24-0.81-0.73-1.1C202.05,14.08,201.42,13.93,200.65,13.93z M204.42,23.68h4.18V11.23h2.86v16.34h-2.86V26h-4.18V23.68z
				"/>
			<path class="st0" d="M212,32.44h-14.8v-6.12h3.29v3.26H212V32.44z M197.6,32.03h13.99v-2.05h-11.51v-3.26h-2.48V32.03z
				 M211.66,27.77h-3.26V26.2h-4.18v-2.73h4.18V11.02h3.26V27.77z M208.8,27.37h2.46V11.43h-2.46v12.45h-4.18v1.92h4.18V27.37z
				 M201.96,25.9h-3.24v-2.73c-0.68,0.01-1.39,0.02-2.14,0.02h-2.81v-2.82h0.2c1.74,0,3.27-0.01,4.6-0.02
				c1.32-0.02,2.51-0.04,3.56-0.07c1.04-0.03,1.99-0.07,2.82-0.11c0.83-0.05,1.62-0.11,2.35-0.18l0.2-0.02l0.24,2.79l-0.19,0.02
				c-0.73,0.09-1.57,0.16-2.5,0.22c-0.87,0.05-1.91,0.09-3.09,0.12V25.9z M199.12,25.5h2.43v-2.77l0.2,0
				c1.26-0.03,2.36-0.07,3.28-0.12c0.84-0.05,1.61-0.11,2.28-0.19l-0.17-1.99c-0.68,0.07-1.4,0.12-2.17,0.16
				c-0.84,0.05-1.79,0.08-2.83,0.11c-1.05,0.03-2.24,0.05-3.57,0.07c-1.27,0.01-2.74,0.02-4.4,0.02v2.01h2.41
				c0.82,0,1.59-0.01,2.33-0.02l0.21,0V25.5z M200.65,19.9c-0.77,0-1.5-0.09-2.16-0.28c-0.66-0.19-1.25-0.45-1.74-0.79
				c-0.5-0.34-0.9-0.76-1.18-1.25c-0.29-0.49-0.44-1.04-0.44-1.62v-0.64c0-0.58,0.15-1.12,0.44-1.62c0.29-0.49,0.69-0.91,1.18-1.25
				c0.49-0.34,1.08-0.6,1.74-0.79c1.3-0.37,2.96-0.38,4.3,0c0.67,0.19,1.26,0.45,1.75,0.79c0.5,0.34,0.9,0.76,1.18,1.25
				c0.29,0.49,0.44,1.04,0.44,1.62v0.64c0,0.58-0.15,1.12-0.44,1.62c-0.29,0.49-0.68,0.91-1.18,1.25c-0.49,0.34-1.08,0.6-1.75,0.79
				C202.13,19.8,201.41,19.9,200.65,19.9z M200.65,11.79c-0.74,0-1.42,0.09-2.05,0.27c-0.62,0.17-1.16,0.42-1.62,0.73
				c-0.45,0.31-0.81,0.68-1.06,1.12c-0.25,0.43-0.38,0.9-0.38,1.41v0.64c0,0.51,0.13,0.98,0.38,1.41c0.26,0.44,0.61,0.81,1.06,1.12
				c0.46,0.31,1,0.56,1.62,0.74c1.23,0.35,2.81,0.36,4.08,0c0.63-0.18,1.18-0.42,1.63-0.74c0.45-0.31,0.81-0.68,1.06-1.12
				c0.25-0.43,0.38-0.9,0.38-1.41v-0.64c0-0.51-0.13-0.98-0.38-1.41c-0.26-0.43-0.61-0.81-1.06-1.12c-0.46-0.31-1.01-0.56-1.63-0.73
				C202.05,11.88,201.37,11.79,200.65,11.79z M200.65,17.55c-0.81,0-1.48-0.16-1.99-0.47c-0.55-0.33-0.82-0.76-0.82-1.28v-0.32
				c0-0.51,0.28-0.94,0.82-1.28c0.51-0.31,1.18-0.47,1.99-0.47c0.81,0,1.47,0.16,1.99,0.47c0.55,0.33,0.82,0.76,0.82,1.28v0.32
				c0,0.51-0.28,0.94-0.82,1.28C202.12,17.39,201.45,17.55,200.65,17.55z M200.65,14.14c-0.73,0-1.33,0.14-1.78,0.41
				c-0.42,0.26-0.63,0.56-0.63,0.93v0.32c0,0.37,0.21,0.67,0.63,0.93c0.45,0.27,1.05,0.41,1.78,0.41c0.73,0,1.33-0.14,1.78-0.41
				c0.42-0.26,0.63-0.56,0.63-0.93v-0.32c0-0.37-0.21-0.67-0.63-0.93C201.98,14.28,201.38,14.14,200.65,14.14z"/>
		</g>
	</g>
</g>
</svg>
